<svg id="visual" viewBox="0 0 900 600" width="900" height="600" xmlns="http://www.w3.org/2000/svg" xmlns:xlink="http://www.w3.org/1999/xlink" version="1.1"><rect x="0" y="0" width="900" height="600" fill="#FF0066"></rect><g transform="translate(420.68257333140457 348.9706425295579)"><path d="M156.7 -227.4C185 -225.6 177.6 -151.6 227.1 -90C276.7 -28.3 383.3 21.1 399.5 72.5C415.6 124 341.2 177.6 272.3 209.5C203.5 241.4 140.2 251.7 90 232.8C39.7 214 2.5 166 -18.6 129.5C-39.6 93 -44.6 68 -75.6 53.6C-106.6 39.2 -163.7 35.5 -219.7 -1C-275.7 -37.6 -330.7 -106.8 -341.2 -185.7C-351.7 -264.6 -317.8 -353.2 -253.5 -338.6C-189.2 -324.1 -94.6 -206.6 -15.2 -182.9C64.2 -159.2 128.3 -229.3 156.7 -227.4" fill="#BB004B"></path></g></svg>