<svg id="visual" viewBox="0 0 900 600" width="900" height="600" xmlns="http://www.w3.org/2000/svg" xmlns:xlink="http://www.w3.org/1999/xlink" version="1.1"><rect x="0" y="0" width="900" height="600" fill="#FF0066"></rect><g transform="translate(453.1619542168394 271.612694992985)"><path d="M102.1 -166.9C141.6 -153.9 189.4 -145.5 232 -118.4C274.5 -91.3 311.8 -45.7 304.5 -4.2C297.3 37.3 245.7 74.7 209.5 112.8C173.3 150.9 152.7 189.8 120.3 202.8C88 215.8 44 202.9 -9.2 218.9C-62.5 234.9 -125 279.8 -165.6 271.6C-206.1 263.3 -224.7 201.9 -252.8 147.8C-280.9 93.7 -318.5 46.8 -310.7 4.5C-302.9 -37.8 -249.7 -75.7 -211.9 -112.9C-174.1 -150.1 -151.5 -186.8 -118.8 -203.7C-86 -220.6 -43 -217.8 -5.9 -207.6C31.3 -197.5 62.5 -179.9 102.1 -166.9" fill="#BB004B"></path></g></svg>